# xmcd
#
# Track frame offsets:
#	150
#	16697
#	37222
#	51277
#	66050
#	83967
#	104537
#	117255
#	131972
#	144395
#	184355
#	239005
#	253902
#	267205
#	279150
#	289330
#	304340
#
# Disc length: 4237 seconds
#
# Revision: 0
# Processed by: cddbd v1.4PL0 Copyright (c) Steve Scherf et al.
# Submitted via: EasyCDDAExtractor 5.0.5.1
#
DISCID=0c108b11
DTITLE=Various Artist - Ultime Slows - CD2
DYEAR=2002
DGENRE=Other
TTITLE0=Il Etait Une Fois - J'ai Encore Rêvé d'Elle
TTITLE1=Gérard Blanc - Une Autre Histoire
TTITLE2=Eric Charden - Le Monde Est Gris...
TTITLE3=Jean-François Michaël - Adieu Jolie Candy
TTITLE4=Material and Whitney Houston - Memories
TTITLE5=Jenny Mc Kay - No Tears No Regrets
TTITLE6=Fleetwood Mac - Man Of The World
TTITLE7=Bobby Womack - Love The Time Is Now
TTITLE8=The Platters - Only You
TTITLE9=James Brown - It's A Man's Man's World (live)
TTITLE10=Marvin Gaye - Sexual Healing (live)
TTITLE11=Alan Price Set - I Put A Spell On You
TTITLE12=Various Artist - Gene Vincent - Ain't That Too Much
TTITLE13=The Charts - Living The Nightlife
TTITLE14=The Drifters - Up On The Roof
TTITLE15=The Platters - The Great Pretender
TTITLE16=Dinah Washington - Mad About The Boy
EXTD=
EXTT0=
EXTT1=
EXTT2=
EXTT3=
EXTT4=
EXTT5=
EXTT6=
EXTT7=
EXTT8=
EXTT9=
EXTT10=
EXTT11=
EXTT12=
EXTT13=
EXTT14=
EXTT15=
EXTT16=
PLAYORDER=
